<!--?xml version="1.0" encoding="utf-8"?-->
<!-- Generator: Adobe Illustrator 15.1.0, SVG Export Plug-In . SVG Version: 6.00 Build 0)  -->

<svg version="1.1" id="_x32_" xmlns="http://www.w3.org/2000/svg" xmlns:xlink="http://www.w3.org/1999/xlink" x="0px" y="0px" width="512px" height="512px" viewBox="0 0 512 512" style="width: 128px; height: 128px; opacity: 1;" xml:space="preserve">
<style type="text/css">

	.st0{fill:#4B4B4B;}

</style>
<g>
	<path class="st0" d="M0,354.344h345.656V75.188H0V354.344z M40.453,115.656h264.734v198.234H40.453V115.656z" style="fill: rgb(199, 199, 199);"></path>
	<path class="st0" d="M208.75,373.219h-71.875c0,0,0,37.781-44.531,37.781c0,15.047,0,25.813,0,25.813h160.969
		c0,0,0-10.766,0-25.813C208.75,411,208.75,373.219,208.75,373.219z" style="fill: rgb(199, 199, 199);"></path>
	<path class="st0" d="M367.344,75.188v361.625H512V75.188H367.344z M439.688,346.406c-13,0-23.516-10.516-23.516-23.5
		s10.516-23.5,23.516-23.5c12.969,0,23.5,10.516,23.5,23.5S452.656,346.406,439.688,346.406z M476.75,199.953h-72.344v-14.469
		h72.344V199.953z M476.75,156.563h-72.344v-14.469h72.344V156.563z" style="fill: rgb(199, 199, 199);"></path>
</g>
</svg>
